<svg width="78" height="91" viewBox="0 0 78 91" fill="none" xmlns="http://www.w3.org/2000/svg">
<path fill-rule="evenodd" clip-rule="evenodd" d="M31.0858 41.9062C31.0858 48.8384 25.4662 54.458 18.5341 54.458C11.602 54.458 5.98236 48.8384 5.98236 41.9062H0.5V77.8301L5.98236 77.8301C5.98236 70.898 11.602 65.2784 18.5341 65.2784C25.4662 65.2784 31.0858 70.898 31.0858 77.8301L36.4239 77.8301V41.9062L31.0858 41.9062Z" fill="black"/>
<path fill-rule="evenodd" clip-rule="evenodd" d="M59.8682 0.5C49.9481 0.5 41.9062 8.54184 41.9062 18.4619V36.4239H47.6771C47.6771 29.4918 53.2967 23.8722 60.2289 23.8722C67.161 23.8722 72.7806 29.4918 72.7806 36.4239H77.8301V18.4619C77.8301 8.54183 69.7883 0.5 59.8682 0.5Z" fill="black"/>
<path fill-rule="evenodd" clip-rule="evenodd" d="M72.492 41.9062C72.492 48.8384 66.8724 54.458 59.9403 54.458C53.0082 54.458 47.3886 48.8384 47.3886 41.9062H41.9062V77.8301L47.3886 77.8301C47.3886 70.898 53.0082 65.2784 59.9403 65.2784C66.8724 65.2784 72.492 70.898 72.492 77.8301L77.8301 77.8301V41.9062L72.492 41.9062Z" fill="#D3B67D"/>
<path fill-rule="evenodd" clip-rule="evenodd" d="M0.5 0.5H36.4239V36.4239H31.0858V23.1508C31.0858 20.362 28.825 18.1013 26.0363 18.1013C23.2475 18.1013 20.9867 20.362 20.9867 23.1508V36.4239H16.0814V23.1508C16.0814 20.362 13.8207 18.1013 11.0319 18.1013C8.24312 18.1013 5.98236 20.362 5.98236 23.1508V36.4239H0.5V0.5Z" fill="black"/>
</svg>
